<?xml version="1.0" encoding="UTF-8" standalone="no"?>
<!DOCTYPE svg PUBLIC "-//W3C//DTD SVG 1.1//EN" "http://www.w3.org/Graphics/SVG/1.1/DTD/svg11.dtd">
<!-- Created with Vectornator (http://vectornator.io/) -->
<svg height="100%" stroke-miterlimit="10" style="fill-rule:nonzero;clip-rule:evenodd;stroke-linecap:round;stroke-linejoin:round;" version="1.1" viewBox="0 0 371.163 185.304" width="100%" xml:space="preserve" xmlns="http://www.w3.org/2000/svg" xmlns:vectornator="http://vectornator.io" xmlns:xlink="http://www.w3.org/1999/xlink">
<defs/>
<g id="layer1" vectornator:layerName="layer1">
<g fill="#94d2bd" opacity="1" stroke="none" vectornator:layerName="Text 1">
<path d="M86.3182 154.556C83.1932 156.431 79.6619 157.368 75.7244 157.368C70.9744 157.368 66.7869 156.298 63.1619 154.157C59.5369 152.016 56.701 148.985 54.6541 145.063C52.6072 141.141 51.5526 136.587 51.4901 131.399L51.4901 131.259C51.5526 126.071 52.6072 121.516 54.6541 117.595C56.701 113.673 59.5369 110.641 63.1619 108.501C66.7869 106.36 70.9744 105.29 75.7244 105.29C83.6932 105.29 89.6932 108.806 93.7244 115.837L88.8963 119.446C85.5526 114.446 81.1619 111.946 75.7244 111.946C72.5057 111.946 69.6776 112.743 67.2401 114.337C64.8026 115.931 62.8885 118.188 61.4979 121.11C60.1072 124.032 59.3807 127.431 59.3182 131.306C59.3807 135.212 60.1072 138.626 61.4979 141.548C62.8885 144.47 64.8026 146.727 67.2401 148.321C69.6776 149.915 72.5057 150.712 75.7244 150.712C78.4119 150.712 80.8885 150.04 83.1541 148.696C85.4197 147.352 87.3338 145.399 88.8963 142.837L93.7244 146.446C91.8807 150.009 89.4119 152.712 86.3182 154.556Z"/>
<path d="M138.256 154.181C135.131 156.274 131.568 157.321 127.568 157.321C123.849 157.321 120.662 156.493 118.006 154.837C115.349 153.181 113.287 150.962 111.818 148.181L111.49 148.181L111.49 156.431L103.521 156.431L103.521 85.7899L111.49 85.7899L111.49 115.04L111.818 115.04C113.349 111.977 115.459 109.602 118.146 107.915C120.834 106.227 123.912 105.384 127.381 105.384C131.412 105.384 134.998 106.493 138.138 108.712C141.279 110.931 143.732 114.079 145.498 118.157C147.263 122.235 148.146 126.931 148.146 132.243C148.146 137.212 147.279 141.595 145.545 145.391C143.81 149.188 141.381 152.118 138.256 154.181ZM118.568 149.165C120.693 150.509 123.193 151.181 126.068 151.181C128.693 151.181 131.076 150.391 133.217 148.813C135.357 147.235 137.053 145.009 138.303 142.134C139.553 139.259 140.178 135.962 140.178 132.243C140.178 128.243 139.545 124.696 138.279 121.602C137.013 118.509 135.287 116.11 133.099 114.407C130.912 112.704 128.49 111.852 125.834 111.852C123.178 111.852 120.795 112.54 118.685 113.915C116.576 115.29 114.896 117.235 113.646 119.751C112.396 122.266 111.678 125.165 111.49 128.446L111.49 136.087C111.678 138.899 112.365 141.454 113.553 143.751C114.74 146.048 116.412 147.852 118.568 149.165Z"/>
<path d="M219.537 154.181C216.412 156.274 212.849 157.321 208.849 157.321C205.131 157.321 201.943 156.493 199.287 154.837C196.631 153.181 194.568 150.962 193.099 148.181L192.771 148.181L192.771 156.431L184.803 156.431L184.803 85.7899L192.771 85.7899L192.771 115.04L193.099 115.04C194.631 111.977 196.74 109.602 199.428 107.915C202.115 106.227 205.193 105.384 208.662 105.384C212.693 105.384 216.279 106.493 219.42 108.712C222.56 110.931 225.013 114.079 226.779 118.157C228.545 122.235 229.428 126.931 229.428 132.243C229.428 137.212 228.56 141.595 226.826 145.391C225.092 149.188 222.662 152.118 219.537 154.181ZM199.849 149.165C201.974 150.509 204.474 151.181 207.349 151.181C209.974 151.181 212.357 150.391 214.498 148.813C216.638 147.235 218.334 145.009 219.584 142.134C220.834 139.259 221.459 135.962 221.459 132.243C221.459 128.243 220.826 124.696 219.56 121.602C218.295 118.509 216.568 116.11 214.381 114.407C212.193 112.704 209.771 111.852 207.115 111.852C204.459 111.852 202.076 112.54 199.967 113.915C197.857 115.29 196.178 117.235 194.928 119.751C193.678 122.266 192.959 125.165 192.771 128.446L192.771 136.087C192.959 138.899 193.646 141.454 194.834 143.751C196.021 146.048 197.693 147.852 199.849 149.165Z"/>
<path d="M300.818 154.181C297.693 156.274 294.131 157.321 290.131 157.321C286.412 157.321 283.224 156.493 280.568 154.837C277.912 153.181 275.849 150.962 274.381 148.181L274.053 148.181L274.053 156.431L266.084 156.431L266.084 85.7899L274.053 85.7899L274.053 115.04L274.381 115.04C275.912 111.977 278.021 109.602 280.709 107.915C283.396 106.227 286.474 105.384 289.943 105.384C293.974 105.384 297.56 106.493 300.701 108.712C303.842 110.931 306.295 114.079 308.06 118.157C309.826 122.235 310.709 126.931 310.709 132.243C310.709 137.212 309.842 141.595 308.107 145.391C306.373 149.188 303.943 152.118 300.818 154.181ZM281.131 149.165C283.256 150.509 285.756 151.181 288.631 151.181C291.256 151.181 293.638 150.391 295.779 148.813C297.92 147.235 299.615 145.009 300.865 142.134C302.115 139.259 302.74 135.962 302.74 132.243C302.74 128.243 302.107 124.696 300.842 121.602C299.576 118.509 297.849 116.11 295.662 114.407C293.474 112.704 291.053 111.852 288.396 111.852C285.74 111.852 283.357 112.54 281.248 113.915C279.138 115.29 277.459 117.235 276.209 119.751C274.959 122.266 274.24 125.165 274.053 128.446L274.053 136.087C274.24 138.899 274.928 141.454 276.115 143.751C277.303 146.048 278.974 147.852 281.131 149.165Z"/>
<path d="M342.537 149.774L342.537 156.524L337.709 156.524C334.803 156.493 332.474 155.977 330.724 154.977C328.974 153.977 327.685 152.384 326.857 150.196C326.029 148.009 325.615 145.087 325.615 141.431L325.615 113.821L317.974 113.821L317.974 106.931L325.615 106.931L325.615 95.1181L333.584 92.3056L333.584 106.931L342.724 106.931L342.724 113.821L333.584 113.821L333.584 141.149C333.615 143.587 333.81 145.407 334.17 146.61C334.529 147.813 335.146 148.641 336.021 149.095C336.896 149.548 338.209 149.774 339.959 149.774L342.537 149.774Z"/>
</g>
<path d="M176.732 28.6935L194.571 32.4854L185.549 74.9317L169.363 129.908L160.399 128.003L167.71 71.1397L176.732 28.6935ZM153.177 139.511L170.665 143.228L166.78 161.507L149.291 157.79L153.177 139.511Z" fill="#7f6e6e" fill-opacity="0.748926" opacity="1" stroke="none" vectornator:layerName="Text 2"/>
<path d="M255.829 28.6935L273.669 32.4854L264.647 74.9317L248.461 129.908L239.497 128.003L246.807 71.1397L255.829 28.6935ZM232.275 139.511L249.763 143.228L245.877 161.507L228.389 157.79L232.275 139.511Z" fill="#3e3b3b" fill-opacity="0.841221" opacity="1" stroke="none" vectornator:layerName="Text 4"/>
</g>
</svg>
